<svg id="Layer_2" data-name="Layer 2" xmlns="http://www.w3.org/2000/svg" viewBox="0 0 176 38"><defs><style>.cls-1{fill:#47eae7;}.cls-2{fill:#fff;}</style></defs><title>logo</title><path class="cls-1" d="M8.893,4.523A17.353,17.353,0,1,0,38.11,20.575,19.09,19.09,0,1,1,16.795,0,17.276,17.276,0,0,0,8.893,4.523Z"/><path class="cls-1" d="M24.275,1.753A14.652,14.652,0,1,0,32.13,28.78,16.118,16.118,0,1,1,31.7,3.772,14.611,14.611,0,0,0,24.275,1.753Z"/><path class="cls-1" d="M34.7,9.364A12.048,12.048,0,1,0,23.546,29.635a13.246,13.246,0,1,1,14.3-14.787A11.992,11.992,0,0,0,34.7,9.364Z"/><path class="cls-2" d="M79.936,4.823V34.439H75.4L59.055,14.384V34.439H53.59V4.823h4.532L74.472,24.877V4.823h5.464Z"/><path class="cls-2" d="M102.618,13.982q2.647,2.391,2.647,7.214V34.439h-5v-2.75a6.161,6.161,0,0,1-2.774,2.264,10.867,10.867,0,0,1-4.342.782,10.645,10.645,0,0,1-4.447-.868,6.868,6.868,0,0,1-2.944-2.411,6.115,6.115,0,0,1-1.038-3.491,5.98,5.98,0,0,1,2.265-4.886q2.266-1.84,7.138-1.84H99.97V20.9a4.627,4.627,0,0,0-1.419-3.638,6.144,6.144,0,0,0-4.214-1.27,12.193,12.193,0,0,0-3.748.592,9.215,9.215,0,0,0-3.113,1.65L85.4,14.384a12.869,12.869,0,0,1,4.278-2.073,19.053,19.053,0,0,1,5.294-.72Q99.969,11.592,102.618,13.982ZM97.789,29.975a4.95,4.95,0,0,0,2.181-2.6V24.75H94.506q-4.574,0-4.574,3a2.694,2.694,0,0,0,1.144,2.284,5.242,5.242,0,0,0,3.176.846A6.843,6.843,0,0,0,97.789,29.975Z"/><path class="cls-2" d="M146.309,14.068q2.5,2.475,2.5,7.425V34.439h-5.294V22.169a6.613,6.613,0,0,0-1.313-4.463,4.741,4.741,0,0,0-3.77-1.5,5.523,5.523,0,0,0-4.278,1.756,7.154,7.154,0,0,0-1.61,5.013V34.439h-5.294V22.169a6.613,6.613,0,0,0-1.313-4.463,4.741,4.741,0,0,0-3.77-1.5,5.544,5.544,0,0,0-4.3,1.734,7.205,7.205,0,0,0-1.588,5.035V34.439h-5.294V11.846h5.04v2.877A8.242,8.242,0,0,1,119.2,12.4a10.807,10.807,0,0,1,4.236-.8,10.247,10.247,0,0,1,4.511.952,7.315,7.315,0,0,1,3.113,2.814,9.423,9.423,0,0,1,3.6-2.772,11.721,11.721,0,0,1,4.871-.994A9.209,9.209,0,0,1,146.309,14.068Z"/><path class="cls-2" d="M175.915,24.835H158.168a6.144,6.144,0,0,0,2.435,3.956,7.989,7.989,0,0,0,4.893,1.46,8.248,8.248,0,0,0,6.141-2.454l2.838,3.258a9.566,9.566,0,0,1-3.854,2.75,15.294,15.294,0,0,1-11.818-.55,10.67,10.67,0,0,1-4.384-4.126,11.628,11.628,0,0,1-1.546-5.987,11.8,11.8,0,0,1,1.5-5.944,10.668,10.668,0,0,1,4.172-4.126,12.194,12.194,0,0,1,6.015-1.48,11.873,11.873,0,0,1,5.909,1.46,10.346,10.346,0,0,1,4.066,4.1A12.438,12.438,0,0,1,176,23.269Q176,23.82,175.915,24.835Zm-15.651-7.51a6.318,6.318,0,0,0-2.139,4h12.834a6.235,6.235,0,0,0-2.075-3.977,6.316,6.316,0,0,0-4.321-1.524A6.4,6.4,0,0,0,160.264,17.325Z"/></svg>